<svg width="28" height="28" viewBox="10 10 28 28" fill="none" xmlns="http://www.w3.org/2000/svg">
<path d="M35.9999 24.2741C35.9999 23.4584 35.9324 22.6384 35.7884 21.8359H24.2417V26.4565H30.854C30.5796 27.9467 29.6979 29.2649 28.407 30.1026V33.1007H32.3519C34.6684 31.0108 35.9999 27.9246 35.9999 24.2741Z" fill="#4285F4"/>
<path d="M24.2417 35.9984C27.5434 35.9984 30.3277 34.9359 32.3564 33.1018L28.4115 30.1037C27.314 30.8356 25.8971 31.25 24.2462 31.25C21.0526 31.25 18.3447 29.1382 17.3731 26.2988H13.3022V29.3895C15.3804 33.4412 19.6131 35.9984 24.2417 35.9984Z" fill="#34A853"/>
<path d="M17.3685 26.298C16.8557 24.8078 16.8557 23.1941 17.3685 21.7039V18.6133H13.3022C11.5659 22.0037 11.5659 25.9982 13.3022 29.3886L17.3685 26.298Z" fill="#FBBC04"/>
<path d="M24.2417 16.7492C25.987 16.7227 27.6738 17.3664 28.9378 18.548L32.4329 15.1223C30.2198 13.0854 27.2825 11.9655 24.2417 12.0008C19.6131 12.0008 15.3804 14.558 13.3022 18.6142L17.3686 21.7048C18.3357 18.8611 21.0481 16.7492 24.2417 16.7492Z" fill="#EA4335"/>
</svg>
